<?xml version="1.0" encoding="utf-8"?>
<!-- Generator: Adobe Illustrator 18.1.1, SVG Export Plug-In . SVG Version: 6.00 Build 0)  -->
<svg version="1.1" id="Capa_1" xmlns="http://www.w3.org/2000/svg" xmlns:xlink="http://www.w3.org/1999/xlink" x="0px" y="0px"
	 viewBox="58 -23 216 146" enable-background="new 58 -23 216 146" xml:space="preserve">
<g>
	<path fill="#FFFFFF" d="M117,26.1c-2.3,0-4.3,0.8-5.9,2.4s-2.4,3.6-2.4,5.9v35c0,2.3,0.8,4.3,2.4,5.9s3.6,2.4,5.9,2.4
		c2.3,0,4.3-0.8,5.9-2.4c1.6-1.6,2.4-3.6,2.4-5.9v-35c0-2.3-0.8-4.2-2.4-5.9C121.3,26.9,119.3,26.1,117,26.1z"/>
	<path fill="#FFFFFF" d="M128.6,81.9c0,2.5,0.9,4.6,2.6,6.4c1.7,1.7,3.9,2.6,6.4,2.6h6l0.1,18.5c0,2.3,0.8,4.3,2.4,5.9
		s3.6,2.4,5.9,2.4c2.3,0,4.3-0.8,5.9-2.4s2.4-3.6,2.4-5.9V90.9h11.2v18.5c0,2.3,0.8,4.3,2.4,5.9c1.6,1.6,3.6,2.4,5.9,2.4
		c2.3,0,4.3-0.8,5.9-2.4c1.6-1.6,2.4-3.6,2.4-5.9V90.9h6.1c2.4,0,4.5-0.9,6.3-2.6s2.6-3.9,2.6-6.4V27.7h-74.8V81.9z"/>
	<path fill="#FFFFFF" d="M184.5-5.3l5.8-10.7c0.4-0.7,0.2-1.2-0.4-1.6c-0.7-0.3-1.2-0.2-1.6,0.5l-5.9,10.8
		c-5.2-2.3-10.6-3.4-16.4-3.4c-5.8,0-11.2,1.1-16.4,3.4l-5.9-10.8c-0.4-0.7-0.9-0.8-1.6-0.5c-0.7,0.4-0.8,0.9-0.4,1.6l5.8,10.7
		c-5.9,3-10.5,7.2-14,12.5c-3.5,5.3-5.2,11.2-5.2,17.6h75.4c0-6.4-1.7-12.2-5.2-17.6S190.3-2.3,184.5-5.3z M151,10.2
		c-0.6,0.6-1.4,0.9-2.2,0.9s-1.6-0.3-2.2-0.9c-0.6-0.6-0.9-1.4-0.9-2.2s0.3-1.6,0.9-2.2s1.3-0.9,2.2-0.9c0.9,0,1.6,0.3,2.2,0.9
		S152,7.1,152,8S151.7,9.6,151,10.2z M185.4,10.2c-0.6,0.6-1.3,0.9-2.2,0.9s-1.6-0.3-2.2-0.9C180.3,9.6,180,8.8,180,8
		s0.3-1.6,0.9-2.2c0.6-0.6,1.4-0.9,2.2-0.9s1.6,0.3,2.2,0.9c0.6,0.6,0.9,1.4,0.9,2.2S186,9.6,185.4,10.2z"/>
	<path fill="#FFFFFF" d="M220.9,28.5c-1.6-1.6-3.6-2.4-5.9-2.4c-2.3,0-4.2,0.8-5.9,2.4c-1.6,1.6-2.4,3.6-2.4,5.9v35
		c0,2.3,0.8,4.3,2.4,5.9c1.6,1.6,3.6,2.4,5.9,2.4c2.3,0,4.3-0.8,5.9-2.4c1.6-1.6,2.4-3.6,2.4-5.9v-35
		C223.4,32.1,222.5,30.1,220.9,28.5z"/>
</g>
</svg>
