<?xml version="1.0" encoding="utf-8"?>
<!-- Generator: Adobe Illustrator 18.1.1, SVG Export Plug-In . SVG Version: 6.00 Build 0)  -->
<svg version="1.1" id="Layer_1" xmlns="http://www.w3.org/2000/svg" xmlns:xlink="http://www.w3.org/1999/xlink" x="0px" y="0px"
	 viewBox="0 0 483.3 176.8" enable-background="new 0 0 483.3 176.8" xml:space="preserve">
<rect x="0.1" fill="#7EC242" width="483.2" height="176.8"/>
<g>
	<g>
		<path fill="#F5F5F5" d="M38.3,64.1c-2.2,0-4.1,0.8-5.6,2.3c-1.5,1.5-2.3,3.4-2.3,5.5v32.9c0,2.2,0.8,4,2.3,5.6
			c1.5,1.5,3.4,2.3,5.6,2.3c2.2,0,4-0.8,5.5-2.3c1.5-1.5,2.3-3.4,2.3-5.6V71.9c0-2.1-0.8-4-2.3-5.5C42.3,64.9,40.5,64.1,38.3,64.1z"
			/>
		<path fill="#F5F5F5" d="M49.2,116.5c0,2.3,0.8,4.3,2.4,6c1.6,1.6,3.6,2.4,6,2.4h5.7l0.1,17.4c0,2.2,0.8,4.1,2.3,5.6
			s3.4,2.3,5.5,2.3c2.2,0,4.1-0.8,5.6-2.3s2.3-3.4,2.3-5.6v-17.4h10.5v17.4c0,2.2,0.8,4.1,2.3,5.6c1.5,1.5,3.4,2.3,5.6,2.3
			c2.2,0,4-0.8,5.6-2.3c1.5-1.5,2.3-3.4,2.3-5.6v-17.4h5.7c2.3,0,4.3-0.8,5.9-2.4c1.6-1.6,2.4-3.6,2.4-6V65.6H49.2V116.5z"/>
		<path fill="#F5F5F5" d="M101.6,34.6l5.4-10c0.4-0.7,0.2-1.2-0.4-1.5c-0.7-0.3-1.2-0.2-1.5,0.5l-5.5,10.1c-4.8-2.1-10-3.2-15.4-3.2
			c-5.4,0-10.5,1.1-15.4,3.2l-5.5-10.1c-0.4-0.6-0.9-0.8-1.5-0.5c-0.6,0.4-0.7,0.9-0.4,1.5l5.4,10c-5.5,2.8-9.9,6.7-13.1,11.7
			c-3.3,5-4.9,10.5-4.9,16.5h70.7c0-6-1.6-11.5-4.9-16.5S107.1,37.4,101.6,34.6z M70.2,49.2c-0.6,0.6-1.3,0.9-2.1,0.9
			c-0.8,0-1.5-0.3-2.1-0.9c-0.6-0.6-0.8-1.3-0.8-2.1s0.3-1.5,0.8-2.1c0.6-0.6,1.2-0.9,2.1-0.9c0.8,0,1.5,0.3,2.1,0.9
			c0.6,0.6,0.9,1.3,0.9,2.1S70.8,48.6,70.2,49.2z M102.5,49.2c-0.6,0.6-1.2,0.9-2.1,0.9c-0.8,0-1.5-0.3-2.1-0.9
			c-0.6-0.6-0.9-1.3-0.9-2.1s0.3-1.5,0.9-2.1c0.6-0.6,1.3-0.9,2.1-0.9c0.8,0,1.5,0.3,2.1,0.9c0.6,0.6,0.8,1.3,0.8,2.1
			S103,48.6,102.5,49.2z"/>
		<path fill="#F5F5F5" d="M135.8,66.4c-1.5-1.5-3.4-2.3-5.6-2.3c-2.1,0-4,0.8-5.5,2.3c-1.5,1.5-2.3,3.4-2.3,5.5v32.9
			c0,2.2,0.8,4,2.3,5.6c1.5,1.5,3.4,2.3,5.5,2.3c2.2,0,4.1-0.8,5.6-2.3c1.5-1.5,2.3-3.4,2.3-5.6V71.9
			C138.1,69.7,137.3,67.9,135.8,66.4z"/>
	</g>
</g>
<text transform="matrix(1 0 0 1 172.1971 64.1379)" fill="#F5F5F5" font-family="'HelveticaNeue'" font-size="37.8877">Get it on</text>
<text transform="matrix(1 0 0 1 172.1971 126.243)" fill="#F5F5F5" font-family="'HelveticaNeue'" font-size="52.6218">Google Play</text>
</svg>
