<?xml version="1.0" encoding="utf-8"?>
<!-- Generator: Adobe Illustrator 18.1.1, SVG Export Plug-In . SVG Version: 6.00 Build 0)  -->
<svg version="1.1" id="Layer_1" xmlns="http://www.w3.org/2000/svg" xmlns:xlink="http://www.w3.org/1999/xlink" x="0px" y="0px"
	 viewBox="0 0 483.3 176.8" enable-background="new 0 0 483.3 176.8" xml:space="preserve">
<rect fill="#7EC242" width="483.3" height="176.9"/>
<g>
	<g>
		<path fill="#F5F5F5" d="M127,107.3c-3.4-4.8-5.1-10.3-5.1-16.4c0-5.5,1.6-10.6,4.8-15.2c1.7-2.5,4.5-5.4,8.4-8.7
			c-2.5-3.1-5.1-5.6-7.6-7.3c-4.6-3.2-9.8-4.8-15.6-4.8c-3.5,0-7.7,0.8-12.7,2.5c-4.8,1.7-8.3,2.5-10.5,2.5c-1.7,0-5-0.7-10.1-2.2
			c-5.1-1.5-9.5-2.2-13-2.2c-8.4,0-15.4,3.5-20.8,10.6c-5.5,7.1-8.3,16.3-8.3,27.4c0,11.8,3.6,24.1,10.8,36.9
			c7.3,12.7,14.6,19,22.1,19c2.5,0,5.7-0.8,9.7-2.5c4-1.6,7.4-2.4,10.4-2.4c3.2,0,6.9,0.8,11.1,2.3c4.4,1.6,7.9,2.3,10.3,2.3
			c6.3,0,12.5-4.8,18.8-14.4c4.1-6.1,7.1-12.2,9-18.3C134.2,115.2,130.4,112.1,127,107.3z"/>
		<path fill="#F5F5F5" d="M102.1,50.6c3.1-3.1,5.4-6.5,6.8-10.1c1.4-3.7,2.1-7,2.1-10c0-0.2,0-0.4,0-0.7c0-0.3,0-0.5,0-0.7
			c0-0.1-0.1-0.4-0.2-0.8s-0.1-0.7-0.2-0.8c-8.6,2-14.7,5.6-18.3,10.9c-3.7,5.3-5.6,11.6-5.7,18.8c3.3-0.3,5.8-0.7,7.6-1.2
			C96.8,55,99.4,53.2,102.1,50.6z"/>
	</g>
</g>
<text transform="matrix(1 0 0 1 173.9868 70.0636)" fill="#F5F5F5" font-family="'HelveticaNeue'" font-size="37.8978">Available on the </text>
<text transform="matrix(1 0 0 1 173.989 132.1859)" fill="#F5F5F5" font-family="'HelveticaNeue'" font-size="52.6358">App Store</text>
</svg>
