<?xml version="1.0" encoding="utf-8"?>
<!-- Generator: Adobe Illustrator 18.1.1, SVG Export Plug-In . SVG Version: 6.00 Build 0)  -->
<svg version="1.1" id="Capa_1" xmlns="http://www.w3.org/2000/svg" xmlns:xlink="http://www.w3.org/1999/xlink" x="0px" y="0px"
	 viewBox="58 -23 216 146" enable-background="new 58 -23 216 146" xml:space="preserve">
<g>
	<path fill="#FFFFFF" d="M209.9,70.9c-3.7-5.4-5.6-11.4-5.6-18.2c0-6.1,1.8-11.8,5.3-16.9c1.9-2.8,5-6,9.3-9.6
		c-2.8-3.5-5.6-6.2-8.5-8.1c-5.1-3.5-10.9-5.3-17.4-5.3c-3.9,0-8.6,0.9-14.1,2.8c-5.3,1.8-9.2,2.8-11.7,2.8c-1.8,0-5.6-0.8-11.2-2.4
		c-5.7-1.6-10.5-2.4-14.4-2.4c-9.3,0-17.1,3.9-23.1,11.7c-6.1,7.9-9.2,18.1-9.2,30.5c0,13.1,4,26.8,12,41
		c8.1,14.1,16.3,21.1,24.5,21.1c2.8,0,6.4-0.9,10.8-2.8c4.4-1.8,8.3-2.7,11.6-2.7c3.5,0,7.6,0.9,12.3,2.6c4.9,1.7,8.7,2.6,11.4,2.6
		c7,0,13.9-5.3,20.9-16c4.6-6.8,7.9-13.6,10-20.4C217.9,79.7,213.6,76.3,209.9,70.9z"/>
	<path fill="#FFFFFF" d="M182.2,8c3.4-3.4,5.9-7.2,7.6-11.2c1.6-4.1,2.4-7.8,2.4-11.1c0-0.2,0-0.5,0-0.8c0-0.3,0-0.6,0-0.8
		c-0.1-0.2-0.1-0.5-0.2-0.9s-0.1-0.7-0.2-0.9c-9.6,2.2-16.3,6.2-20.4,12.1c-4.1,5.9-6.2,12.8-6.4,20.9c3.6-0.3,6.5-0.8,8.5-1.4
		C176.3,12.8,179.2,10.9,182.2,8z"/>
</g>
</svg>
