<?xml version="1.0" encoding="utf-8"?>
<!-- Generator: Adobe Illustrator 18.1.1, SVG Export Plug-In . SVG Version: 6.00 Build 0)  -->
<svg version="1.1" id="Capa_1" xmlns="http://www.w3.org/2000/svg" xmlns:xlink="http://www.w3.org/1999/xlink" x="0px" y="0px"
	 viewBox="58 -23 216 146" enable-background="new 58 -23 216 146" xml:space="preserve">
<g>
	<path fill="#B6B7B7" d="M184.3,73.5c0,1.4-0.5,2.6-1.5,3.7c-1,1-2.3,1.5-3.7,1.5H153c-1.4,0-2.6-0.5-3.7-1.5c-1-1-1.5-2.3-1.5-3.7
		v-13H93v39.1c0,3.6,1.3,6.7,3.8,9.2c2.6,2.6,5.6,3.8,9.2,3.8H226c3.6,0,6.7-1.3,9.2-3.8c2.6-2.6,3.8-5.6,3.8-9.2V60.4h-54.7
		L184.3,73.5L184.3,73.5z"/>
	<rect x="155.6" y="60.4" fill="#B6B7B7" width="20.9" height="10.4"/>
	<path fill="#B6B7B7" d="M235.2,12.1c-2.6-2.6-5.6-3.8-9.2-3.8h-28.7v-13c0-2.2-0.8-4-2.3-5.5c-1.5-1.5-3.4-2.3-5.5-2.3h-46.9
		c-2.2,0-4,0.8-5.5,2.3s-2.3,3.4-2.3,5.5v13H106c-3.6,0-6.7,1.3-9.2,3.8c-2.6,2.6-3.8,5.6-3.8,9.2v31.3h146V21.3
		C239,17.7,237.7,14.7,235.2,12.1z M186.9,8.3h-41.7V-2.1h41.7V8.3z"/>
</g>
</svg>
