<?xml version="1.0" encoding="utf-8"?>
<!-- Generator: Adobe Illustrator 18.1.1, SVG Export Plug-In . SVG Version: 6.00 Build 0)  -->
<svg version="1.1" id="Capa_1" xmlns="http://www.w3.org/2000/svg" xmlns:xlink="http://www.w3.org/1999/xlink" x="0px" y="0px"
	 viewBox="0 0 100 100" enable-background="new 0 0 100 100" xml:space="preserve">
<path fill="#B6B7B7" d="M98.5,41.5c-0.3-0.5-0.8-0.7-1.3-0.8l-11.7-1.8c-0.6-2-1.5-4.2-2.6-6.3c0.8-1.1,1.9-2.6,3.4-4.5
	c1.6-1.9,2.6-3.4,3.3-4.2c0.3-0.5,0.5-0.9,0.5-1.5c0-0.6-0.2-1.1-0.5-1.4c-1.6-2.2-5-5.8-10.5-10.9c-0.5-0.4-1-0.6-1.6-0.6
	c-0.6,0-1.2,0.2-1.6,0.5L67,16.9c-1.7-0.9-3.7-1.6-5.7-2.4L59.5,2.8c-0.1-0.5-0.3-1-0.7-1.4c-0.5-0.4-0.9-0.5-1.6-0.5H43
	c-1.3,0-2,0.6-2.3,1.8c-0.5,2.1-1.2,6.1-1.9,11.9c-2,0.6-3.9,1.4-5.8,2.4l-8.9-6.8c-0.5-0.4-1.1-0.6-1.6-0.6c-0.9,0-3,1.5-6,4.5
	s-5.2,5.3-6.3,6.9c-0.4,0.5-0.5,1-0.5,1.5c0,0.5,0.2,1,0.6,1.6c2.8,3.4,5.1,6.3,6.8,8.8c-1.1,2-1.9,3.9-2.5,5.9L2.7,40.5
	c-0.5,0.1-0.9,0.4-1.2,0.9S1,42.3,1,42.8V57c0,0.5,0.2,1,0.5,1.5c0.3,0.5,0.8,0.7,1.3,0.8L14.5,61c0.6,2.1,1.5,4.2,2.6,6.3
	c-0.8,1.1-1.9,2.6-3.4,4.5c-1.6,1.9-2.6,3.4-3.3,4.2c-0.3,0.5-0.5,0.9-0.5,1.5c0,0.5,0.2,1,0.5,1.5c1.6,2.3,5.2,5.9,10.5,10.7
	c0.5,0.5,1,0.7,1.6,0.7c0.6,0,1.2-0.2,1.6-0.5l9-6.8c1.7,0.9,3.7,1.6,5.7,2.4l1.8,11.8c0.1,0.5,0.3,1,0.7,1.4
	c0.5,0.4,0.9,0.5,1.6,0.5h14.3c1.3,0,2-0.6,2.3-1.8c0.5-2.1,1.2-6.1,1.9-11.9c2-0.6,3.9-1.4,5.8-2.4l8.8,6.9
	c0.6,0.4,1.2,0.5,1.6,0.5c0.9,0,2.9-1.5,6-4.5c3.1-3.1,5.2-5.3,6.3-6.9c0.4-0.4,0.5-0.9,0.5-1.5c0-0.5-0.2-1.1-0.6-1.6
	c-3.1-3.8-5.3-6.7-6.8-8.8c0.9-1.6,1.6-3.5,2.5-5.8l11.8-1.8c0.5-0.1,0.9-0.4,1.3-0.9c0.3-0.5,0.5-0.9,0.5-1.5V43
	C99.1,42.4,98.9,42,98.5,41.5z M61.5,61.5c-3.2,3.2-7.1,4.8-11.5,4.8s-8.4-1.6-11.5-4.8c-3.2-3.2-4.8-7.1-4.8-11.5s1.6-8.4,4.8-11.5
	c3.2-3.2,7.1-4.8,11.5-4.8c4.5,0,8.4,1.6,11.5,4.8c3.2,3.2,4.8,7.1,4.8,11.5S64.8,58.3,61.5,61.5z"/>
</svg>
