<?xml version="1.0" encoding="utf-8"?>
<!-- Generator: Adobe Illustrator 18.1.1, SVG Export Plug-In . SVG Version: 6.00 Build 0)  -->
<svg version="1.1" id="Layer_1" xmlns="http://www.w3.org/2000/svg" xmlns:xlink="http://www.w3.org/1999/xlink" x="0px" y="0px"
	 viewBox="0 0 800 500" enable-background="new 0 0 800 500" xml:space="preserve">
<g>
	<g>
		<g>
			<defs>
				<rect id="SVGID_1_" x="-26.9" y="-34.6" width="831.1" height="653.2"/>
			</defs>
			<clipPath id="SVGID_2_">
				<use xlink:href="#SVGID_1_"  overflow="visible"/>
			</clipPath>
			<g clip-path="url(#SVGID_2_)">
				<g>
					<path fill="#1EB471" d="M749.3,113.3c-46.5,53.2-94.7,106.4-142.9,157.9c-53.2,58.2-108,116.4-162.9,176.2
						c-10,16.6-24.9,26.6-46.5,26.6c-15,0-31.6-6.6-41.6-19.9c-103.1-113-206.1-224.4-310.8-337.4c-11.6-13.3-19.9-28.3-10-44.9
						c11.6-16.6,28.3-13.3,44.9-8.3c79.8,29.9,157.9,59.8,237.7,89.8c15,5,23.3,15,29.9,29.9c13.3,26.6,26.6,54.9,39.9,81.4
						c8.3,16.6,15,15,23.3,0"/>
					<path fill="#1EB471" d="M855.7,256.3c0-59.8,0-119.7,0-177.8c0-23.3,8.3-31.6,31.6-29.9c29.9,1.7,59.8,0,91.4,0
						c69.8,1.7,109.7,36.6,113,106.4c3.3,68.1,3.3,136.3,0,204.4c-3.3,69.8-44.9,106.4-113,106.4c-28.3,0-56.5-1.7-84.8,0
						c-26.6,1.7-36.6-8.3-36.6-34.9C857.3,372.6,857.3,314.5,855.7,256.3L855.7,256.3z M892.2,251.3
						C892.2,251.3,893.9,251.3,892.2,251.3c0,49.9,1.7,99.7,0,149.6c0,19.9,6.6,29.9,26.6,28.3c21.6-1.7,44.9,0,66.5-1.7
						c39.9-1.7,64.8-23.3,66.5-63.2c3.3-73.1,3.3-146.3,0-219.4c-1.7-33.2-21.6-53.2-53.2-59.8c-26.6-6.6-51.5-5-78.1-6.6
						c-21.6-1.7-29.9,8.3-28.3,28.3C893.9,156.6,892.2,203.1,892.2,251.3z"/>
					<path fill="#1EB471" d="M2690.7,244.7c0,63.2,0,126.3,0,189.5c0,23.3-8.3,36.6-33.2,28.3c-15-5-28.3,1.7-43.2,5
						c-59.8,13.3-108-15-124.7-71.5c-11.6-38.2-11.6-76.5-6.6-116.4c11.6-76.5,54.9-108,138-98.1c26.6,3.3,33.2-3.3,31.6-28.3
						c-1.7-29.9-1.7-58.2,0-88.1c1.7-15-10-39.9,16.6-41.6c28.3-1.7,18.3,24.9,18.3,39.9C2690.7,125,2690.7,184.8,2690.7,244.7z
						 M2654.1,322.8c0-23.3,0-46.5,0-69.8c0-11.6-3.3-21.6-15-28.3c-49.9-26.6-109.7,1.7-118,58.2c-3.3,28.3-3.3,58.2,0,88.1
						c8.3,58.2,49.9,79.8,104.7,59.8c18.3-6.6,28.3-18.3,28.3-38.2C2652.5,367.7,2654.1,344.4,2654.1,322.8z"/>
					<path fill="#1EB471" d="M1887.9,470.7c-49.9,0-86.4-26.6-101.4-76.5c-13.3-46.5-15-91.4,1.7-138
						c19.9-56.5,69.8-88.1,124.7-76.5c49.9,10,84.8,66.5,74.8,116.4c-3.3,16.6-15,19.9-26.6,21.6c-39.9,8.3-79.8,16.6-121.3,23.3
						c-19.9,3.3-26.6,10-21.6,29.9c10,53.2,54.9,78.1,104.7,56.5c6.6-3.3,13.3-8.3,19.9-11.6c10-5,16.6,3.3,21.6,10
						c6.6,8.3,1.7,15-5,19.9C1947.7,462.4,1917.8,470.7,1887.9,470.7z M1828,306.2c28.3-5,58.2-10,86.4-16.6
						c11.6-3.3,29.9,1.7,34.9-16.6c3.3-18.3-5-34.9-18.3-46.5c-15-15-34.9-16.6-54.9-11.6c-31.6,8.3-58.2,43.2-59.8,78.1
						C1813.1,306.2,1816.4,309.5,1828,306.2z"/>
					<path fill="#1EB471" d="M2830.3,470.7c-51.5,0-89.8-28.3-103.1-78.1c-15-54.9-15-108,13.3-159.6
						c21.6-39.9,68.1-63.2,109.7-53.2c51.5,10,88.1,64.8,78.1,116.4c-3.3,16.6-13.3,19.9-26.6,21.6c-41.6,8.3-81.4,16.6-123,23.3
						c-18.3,3.3-21.6,10-19.9,26.6c8.3,56.5,54.9,81.4,108,58.2c5-1.7,10-6.6,15-8.3c13.3-6.6,19.9,1.7,26.6,10
						c8.3,10-1.7,15-8.3,19.9C2880.2,465.7,2856.9,472.4,2830.3,470.7z M2840.3,214.7c-44.9,0-74.8,31.6-81.4,74.8
						c-1.7,15,0,19.9,15,16.6c28.3-6.6,58.2-10,86.4-16.6c34.9-6.6,39.9-23.3,21.6-51.5C2870.2,221.4,2853.6,214.7,2840.3,214.7z"/>
					<path fill="#1EB471" d="M2231.9,327.8c-1.7-23.3,0-46.5,6.6-69.8c11.6-46.5,43.2-73.1,88.1-76.5c56.5-3.3,98.1,19.9,113,68.1
						c15,48.2,16.6,98.1,1.7,146.3c-16.6,53.2-59.8,81.4-116.4,74.8c-49.9-5-86.4-48.2-93.1-104.7
						C2230.3,352.7,2231.9,339.4,2231.9,327.8z M2413.1,326.1c0-23.3-1.7-44.9-8.3-66.5c-10-26.6-39.9-46.5-68.1-44.9
						c-29.9,1.7-51.5,15-61.5,44.9c-11.6,41.6-15,81.4-1.7,123c10,34.9,33.2,51.5,69.8,49.9c34.9,0,54.9-16.6,64.8-51.5
						C2413.1,364.3,2413.1,346,2413.1,326.1z"/>
					<path fill="#1EB471" d="M1507.2,327.8c1.7,26.6-1.7,51.5-10,74.8c-16.6,43.2-49.9,68.1-94.7,69.8
						c-48.2,1.7-86.4-23.3-103.1-66.5c-19.9-56.5-16.6-113,3.3-167.9c16.6-41.6,53.2-58.2,109.7-53.2c39.9,3.3,76.5,34.9,86.4,76.5
						C1507.2,281.2,1510.6,306.2,1507.2,327.8z M1324.4,322.8c0,24.9-1.7,48.2,10,71.5c13.3,28.3,34.9,43.2,66.5,41.6
						c29.9,0,49.9-13.3,59.8-41.6c16.6-44.9,15-91.4,0-136.3c-8.3-26.6-39.9-43.2-68.1-41.6c-33.2,1.7-53.2,18.3-63.2,51.5
						C1326.1,284.5,1326.1,304.5,1324.4,322.8z"/>
					<path fill="#1EB471" d="M1540.5,324.4c0-36.6,0-71.5,0-108c0-23.3,10-33.2,31.6-26.6c16.6,5,29.9,0,44.9-3.3
						c78.1-19.9,118,10,119.7,91.4c0,53.2,0,108,0,161.2c0,11.6,1.7,24.9-15,26.6c-18.3,0-16.6-13.3-16.6-24.9
						c0-51.5,0-103.1,0-154.6c0-23.3,1.7-49.9-26.6-63.2c-19.9-10-74.8,1.7-91.4,16.6c-8.3,8.3-8.3,19.9-8.3,29.9
						c0,54.9,0,111.4,0,166.2c0,13.3,3.3,29.9-18.3,29.9c-21.6,0-18.3-15-18.3-28.3C1540.5,397.6,1540.5,361,1540.5,324.4z"/>
					<path fill="#1EB471" d="M2052.4,326.1c0,19.9,0,38.2,6.6,58.2c15,48.2,64.8,66.5,108,39.9c6.6-5,11.6-15,23.3-10
						c6.6,3.3,13.3,6.6,15,11.6c5,8.3-3.3,15-8.3,19.9c-43.2,43.2-129.6,31.6-161.2-26.6c-33.2-63.2-29.9-131.3,3.3-194.5
						c26.6-53.2,116.4-61.5,157.9-18.3c6.6,6.6,16.6,13.3,6.6,24.9c-6.6,8.3-15,11.6-28.3,5c-73.1-41.6-119.7-15-123,69.8
						C2052.4,312.8,2052.4,319.5,2052.4,326.1z"/>
					<path fill="#1EB471" d="M1129.9,324.4c0-36.6,0-74.8,0-111.4c0-24.9,10-33.2,33.2-21.6c15,6.6,24.9,1.7,34.9-1.7
						c28.3-11.6,56.5-11.6,83.1,6.6c8.3,5,16.6,11.6,8.3,23.3c-6.6,10-15,15-26.6,6.6c-31.6-18.3-58.2-1.7-86.4,15
						c-11.6,6.6-10,19.9-10,31.6c0,53.2,0,106.4,0,161.2c0,13.3,3.3,29.9-16.6,31.6c-23.3,0-18.3-18.3-18.3-31.6
						C1129.9,395.9,1129.9,361,1129.9,324.4z"/>
				</g>
			</g>
		</g>
	</g>
	<polygon fill="#078A55" points="347.7,448.7 247.2,336 343.1,175.2 398.8,276.4 	"/>
	<polygon fill="#58C6CE" points="444.2,449.6 548.2,337.3 454,179 397.2,279.3 	"/>
	<g>
		<g>
			<defs>
				<rect id="SVGID_3_" x="-26.9" y="-31.6" width="831.1" height="653.2"/>
			</defs>
			<clipPath id="SVGID_4_">
				<use xlink:href="#SVGID_3_"  overflow="visible"/>
			</clipPath>
			<g clip-path="url(#SVGID_4_)">
				<g>
					<path fill="#58C6CE" d="M397.2,279.3c8.3,16.6,4.7,3.2,13.1-11.7c13.3-26.6,28.3-53.2,39.9-81.4c6.6-15,18.3-23.3,33.2-29.9
						c71.5-26.6,144.6-53.2,216.1-81.4c6.6-1.7,13.3-5,19.9-6.6c15-1.7,33.2-5,41.6,11.6c8.3,15-3.3,26.6-11.6,36.6
						c-46.5,53.2-94.7,106.4-142.9,157.9c-53.2,58.2-108,116.4-162.9,176.2c-13.8,16-24.9,26.6-46.5,26.6c-15,0-39.2-15-49.2-28.3"
						/>
					<path fill="#1EB471" d="M855.7,259.3c0-59.8,0-119.7,0-177.8c0-23.3,8.3-31.6,31.6-29.9c29.9,1.7,59.8,0,91.4,0
						c69.8,1.7,109.7,36.6,113,106.4c3.3,68.1,3.3,136.3,0,204.4c-3.3,69.8-44.9,106.4-113,106.4c-28.3,0-56.5-1.7-84.8,0
						c-26.6,1.7-36.6-8.3-36.6-34.9C857.3,375.6,857.3,317.5,855.7,259.3L855.7,259.3z M892.2,254.3
						C892.2,254.3,893.9,254.3,892.2,254.3c0,49.9,1.7,99.7,0,149.6c0,19.9,6.6,29.9,26.6,28.3c21.6-1.7,44.9,0,66.5-1.7
						c39.9-1.7,64.8-23.3,66.5-63.2c3.3-73.1,3.3-146.3,0-219.4c-1.7-33.2-21.6-53.2-53.2-59.8c-26.6-6.6-51.5-5-78.1-6.6
						c-21.6-1.7-29.9,8.3-28.3,28.3C893.9,159.6,892.2,206.1,892.2,254.3z"/>
					<path fill="#1EB471" d="M2690.7,247.7c0,63.2,0,126.3,0,189.5c0,23.3-8.3,36.6-33.2,28.3c-15-5-28.3,1.7-43.2,5
						c-59.8,13.3-108-15-124.7-71.5c-11.6-38.2-11.6-76.5-6.6-116.4c11.6-76.5,54.9-108,138-98.1c26.6,3.3,33.2-3.3,31.6-28.3
						c-1.7-29.9-1.7-58.2,0-88.1c1.7-15-10-39.9,16.6-41.6c28.3-1.7,18.3,24.9,18.3,39.9C2690.7,128,2690.7,187.8,2690.7,247.7z
						 M2654.1,325.8c0-23.3,0-46.5,0-69.8c0-11.6-3.3-21.6-15-28.3c-49.9-26.6-109.7,1.7-118,58.2c-3.3,28.3-3.3,58.2,0,88.1
						c8.3,58.2,49.9,79.8,104.7,59.8c18.3-6.6,28.3-18.3,28.3-38.2C2652.5,370.7,2654.1,347.4,2654.1,325.8z"/>
					<path fill="#1EB471" d="M1887.9,473.7c-49.9,0-86.4-26.6-101.4-76.5c-13.3-46.5-15-91.4,1.7-138
						c19.9-56.5,69.8-88.1,124.7-76.5c49.9,10,84.8,66.5,74.8,116.4c-3.3,16.6-15,19.9-26.6,21.6c-39.9,8.3-79.8,16.6-121.3,23.3
						c-19.9,3.3-26.6,10-21.6,29.9c10,53.2,54.9,78.1,104.7,56.5c6.6-3.3,13.3-8.3,19.9-11.6c10-5,16.6,3.3,21.6,10
						c6.6,8.3,1.7,15-5,19.9C1947.7,465.4,1917.8,473.7,1887.9,473.7z M1828,309.2c28.3-5,58.2-10,86.4-16.6
						c11.6-3.3,29.9,1.7,34.9-16.6c3.3-18.3-5-34.9-18.3-46.5c-15-15-34.9-16.6-54.9-11.6c-31.6,8.3-58.2,43.2-59.8,78.1
						C1813.1,309.2,1816.4,312.5,1828,309.2z"/>
					<path fill="#1EB471" d="M2830.3,473.7c-51.5,0-89.8-28.3-103.1-78.1c-15-54.9-15-108,13.3-159.6
						c21.6-39.9,68.1-63.2,109.7-53.2c51.5,10,88.1,64.8,78.1,116.4c-3.3,16.6-13.3,19.9-26.6,21.6c-41.6,8.3-81.4,16.6-123,23.3
						c-18.3,3.3-21.6,10-19.9,26.6c8.3,56.5,54.9,81.4,108,58.2c5-1.7,10-6.6,15-8.3c13.3-6.6,19.9,1.7,26.6,10
						c8.3,10-1.7,15-8.3,19.9C2880.2,468.7,2856.9,475.4,2830.3,473.7z M2840.3,217.7c-44.9,0-74.8,31.6-81.4,74.8
						c-1.7,15,0,19.9,15,16.6c28.3-6.6,58.2-10,86.4-16.6c34.9-6.6,39.9-23.3,21.6-51.5C2870.2,224.4,2853.6,217.7,2840.3,217.7z"/>
					<path fill="#1EB471" d="M2231.9,330.8c-1.7-23.3,0-46.5,6.6-69.8c11.6-46.5,43.2-73.1,88.1-76.5c56.5-3.3,98.1,19.9,113,68.1
						c15,48.2,16.6,98.1,1.7,146.3c-16.6,53.2-59.8,81.4-116.4,74.8c-49.9-5-86.4-48.2-93.1-104.7
						C2230.3,355.7,2231.9,342.4,2231.9,330.8z M2413.1,329.1c0-23.3-1.7-44.9-8.3-66.5c-10-26.6-39.9-46.5-68.1-44.9
						c-29.9,1.7-51.5,15-61.5,44.9c-11.6,41.6-15,81.4-1.7,123c10,34.9,33.2,51.5,69.8,49.9c34.9,0,54.9-16.6,64.8-51.5
						C2413.1,367.3,2413.1,349.1,2413.1,329.1z"/>
					<path fill="#1EB471" d="M1507.2,330.8c1.7,26.6-1.7,51.5-10,74.8c-16.6,43.2-49.9,68.1-94.7,69.8
						c-48.2,1.7-86.4-23.3-103.1-66.5c-19.9-56.5-16.6-113,3.3-167.9c16.6-41.6,53.2-58.2,109.7-53.2c39.9,3.3,76.5,34.9,86.4,76.5
						C1507.2,284.2,1510.6,309.2,1507.2,330.8z M1324.4,325.8c0,24.9-1.7,48.2,10,71.5c13.3,28.3,34.9,43.2,66.5,41.6
						c29.9,0,49.9-13.3,59.8-41.6c16.6-44.9,15-91.4,0-136.3c-8.3-26.6-39.9-43.2-68.1-41.6c-33.2,1.7-53.2,18.3-63.2,51.5
						C1326.1,287.6,1326.1,307.5,1324.4,325.8z"/>
					<path fill="#1EB471" d="M1540.5,327.4c0-36.6,0-71.5,0-108c0-23.3,10-33.2,31.6-26.6c16.6,5,29.9,0,44.9-3.3
						c78.1-19.9,118,10,119.7,91.4c0,53.2,0,108,0,161.2c0,11.6,1.7,24.9-15,26.6c-18.3,0-16.6-13.3-16.6-24.9
						c0-51.5,0-103.1,0-154.6c0-23.3,1.7-49.9-26.6-63.2c-19.9-10-74.8,1.7-91.4,16.6c-8.3,8.3-8.3,19.9-8.3,29.9
						c0,54.9,0,111.4,0,166.2c0,13.3,3.3,29.9-18.3,29.9c-21.6,0-18.3-15-18.3-28.3C1540.5,400.6,1540.5,364,1540.5,327.4z"/>
					<path fill="#1EB471" d="M2052.4,329.1c0,19.9,0,38.2,6.6,58.2c15,48.2,64.8,66.5,108,39.9c6.6-5,11.6-15,23.3-10
						c6.6,3.3,13.3,6.6,15,11.6c5,8.3-3.3,15-8.3,19.9c-43.2,43.2-129.6,31.6-161.2-26.6c-33.2-63.2-29.9-131.3,3.3-194.5
						c26.6-53.2,116.4-61.5,157.9-18.3c6.6,6.6,16.6,13.3,6.6,24.9c-6.6,8.3-15,11.6-28.3,5c-73.1-41.6-119.7-15-123,69.8
						C2052.4,315.8,2052.4,322.5,2052.4,329.1z"/>
					<path fill="#1EB471" d="M1129.9,327.4c0-36.6,0-74.8,0-111.4c0-24.9,10-33.2,33.2-21.6c15,6.6,24.9,1.7,34.9-1.7
						c28.3-11.6,56.5-11.6,83.1,6.6c8.3,5,16.6,11.6,8.3,23.3c-6.6,10-15,15-26.6,6.6c-31.6-18.3-58.2-1.7-86.4,15
						c-11.6,6.6-10,19.9-10,31.6c0,53.2,0,106.4,0,161.2c0,13.3,3.3,29.9-16.6,31.6c-23.3,0-18.3-18.3-18.3-31.6
						C1129.9,398.9,1129.9,364,1129.9,327.4z"/>
				</g>
			</g>
		</g>
	</g>
</g>
</svg>
