<?xml version="1.0" encoding="utf-8"?>
<!-- Generator: Adobe Illustrator 18.1.1, SVG Export Plug-In . SVG Version: 6.00 Build 0)  -->
<svg version="1.1" id="Layer_1" xmlns="http://www.w3.org/2000/svg" xmlns:xlink="http://www.w3.org/1999/xlink" x="0px" y="0px"
	 viewBox="0 0 100 100" enable-background="new 0 0 100 100" xml:space="preserve">
<g>
	<g>
		<path fill="#B6B7B7" d="M50,78c-2,0-4.3-0.9-5.6-2.7C30.5,60,16.6,45,2.5,29.8c-1.6-1.8-2.7-3.8-1.3-6.1c1.6-2.2,3.8-1.8,6.1-1.1
			c10.8,4,21.3,8.1,32.1,12.1c2,0.7,3.1,2,4,4c1.8,3.6,3.6,7.4,5.4,11c1.1,2.2,2,2,3.1,0c1.8-3.6,3.8-7.2,5.4-11
			c0.9-2,2.5-3.1,4.5-4c9.6-3.6,19.5-7.2,29.1-11c0.9-0.2,1.8-0.7,2.7-0.9c2-0.2,4.5-0.7,5.6,1.6c1.1,2-0.4,3.6-1.6,4.9
			c-6.3,7.2-12.8,14.3-19.3,21.3c-7.2,7.8-14.6,15.7-22,23.8C54.9,76.6,52.9,78,50,78z"/>
	</g>
</g>
</svg>
