<?xml version="1.0" encoding="utf-8"?>
<!-- Generator: Adobe Illustrator 18.1.1, SVG Export Plug-In . SVG Version: 6.00 Build 0)  -->
<svg version="1.1" id="Layer_1" xmlns="http://www.w3.org/2000/svg" xmlns:xlink="http://www.w3.org/1999/xlink" x="0px" y="0px"
	 viewBox="0 0 100 100" enable-background="new 0 0 100 100" xml:space="preserve">
<g>
	<g>
		<g>
			<g>
				<path fill="#B7B7B7" d="M22.8,21.8L22.8,21.8c0.2-0.2,0.4-0.2,0.4-0.2"/>
				<path fill="#B7B7B7" d="M22.6,21.8l0.2-0.2c0.2,0,0.2,0,0.4,0"/>
				<path fill="#B7B7B7" d="M22.6,21.8l0.2-0.2c0.2,0,0.2,0,0.4,0"/>
				<path fill="#B7B7B7" d="M75.2,24.4c0.4,0.4,1,0.8,1.6,0.8"/>
				<path fill="#B7B7B7" d="M75.4,21c-0.6,0.4-0.8,1-0.8,1.8c0,0,0,0,0,0.2"/>
				<path fill="#B7B7B7" d="M75.2,21c-0.2,0.2-0.4,0.6-0.6,0.8"/>
				<path fill="#B7B7B7" d="M74.6,22c-0.2,0.2-0.2,0.6-0.2,1l0,0"/>
				<path fill="#B7B7B7" d="M78.8,21.4c-0.4-0.6-1-0.8-1.8-0.8c0,0,0,0-0.2,0"/>
				<path fill="#B7B7B7" d="M78.8,24.4c0.4-0.4,0.6-1,0.6-1.6c0,0,0,0,0-0.2"/>
				<path fill="#B7B7B7" d="M79.4,23.8c0.2-0.2,0.2-0.6,0.2-1l0,0"/>
				<path fill="#B7B7B7" d="M79,24.4c0.2-0.2,0.2-0.4,0.4-0.6"/>
				<path fill="#B7B7B7" d="M24.8,24.6c-0.4,0.4-1,0.6-1.6,0.6c0,0,0,0-0.2,0"/>
				<path fill="#B7B7B7" d="M21.2,21.8c0-0.2,0.2-0.4,0.4-0.6"/>
				<line fill="#B7B7B7" x1="21" y1="21.8" x2="21.2" y2="22.2"/>
				<path fill="#B7B7B7" d="M21,21.6c0,0,0.2,0.2,0.2,0.4v0.2"/>
				<path fill="#B7B7B7" d="M21.2,22"/>
				<path fill="#B7B7B7" d="M21,22C21,22,21,21.8,21,22C21.2,21.8,21.2,21.8,21,22"/>
				<path fill="#B7B7B7" d="M21.2,22L21.2,22C21.2,21.8,21.2,21.8,21.2,22"/>
				<line fill="#B7B7B7" x1="21.2" y1="21.8" x2="21.2" y2="22.2"/>
				<path fill="#B7B7B7" d="M23,23.4c0.2-0.4,0.4-0.6,0.8-0.6H24"/>
				<path fill="#B7B7B7" d="M23.4,22.2c0,0-0.2,0-0.2,0.2H23"/>
				<path fill="#B7B7B7" d="M23.4,22.2l-0.2,0.2c-0.2,0-0.2,0-0.4,0"/>
				<path fill="#B7B7B7" d="M23.6,22.2c0,0-0.2,0.2-0.4,0.2c-0.2,0-0.2,0-0.4,0"/>
				<path fill="#B7B7B7" d="M24.8,21c0.4,0.4,0.8,1,0.8,1.6"/>
				<path fill="#B7B7B7" d="M25,21c0.2,0.2,0.4,0.6,0.6,0.8"/>
				<path fill="#B7B7B7" d="M21.6,21.4c0.4-0.6,1-0.8,1.8-0.8c0,0,0,0,0.2,0"/>
				<path fill="#B7B7B7" d="M22.4,20.4c0.2-0.2,0.6-0.2,1-0.2l0,0"/>
				<path fill="#B7B7B7" d="M21.4,21.2c0.2-0.2,0.4-0.4,0.8-0.6"/>
				<path fill="#B7B7B7" d="M23.4,20.4c0.2,0,0.4,0,0.6,0.2"/>
				<path fill="#B7B7B7" d="M24,20.4l0.2,0.4l0,0"/>
				<line fill="#B7B7B7" x1="24.2" y1="20.4" x2="24.4" y2="21"/>
				<path fill="#B7B7B7" d="M24.2,20.4L24.2,20.4C24.2,20.6,24.2,20.6,24.2,20.4"/>
				<path fill="#B7B7B7" d="M24.2,20.6L24.2,20.6L24.2,20.6"/>
				<line fill="#B7B7B7" x1="24.2" y1="20.6" x2="24.4" y2="20.8"/>
				<path fill="#B7B7B7" d="M25.4,23L25.4,23c0.4-0.2,0.4-0.4,0.4-0.4"/>
				<path fill="#B7B7B7" d="M25.4,22.8L25.4,22.8c0.2,0,0.2-0.2,0.2-0.2"/>
				<path fill="#B7B7B7" d="M22.2,74.2C22.2,74.2,22,74.2,22.2,74.2c-0.4-0.2-0.6,0-0.6,0"/>
				<path fill="#B7B7B7" d="M22,74.2L22,74.2c-0.2,0-0.4,0-0.4,0"/>
				<line fill="#B7B7B7" x1="21" y1="76.8" x2="21.2" y2="76.2"/>
				<path fill="#B7B7B7" d="M21,77c0,0,0.2-0.2,0.2-0.4v-0.2"/>
				<line fill="#B7B7B7" x1="21.2" y1="76.6" x2="21.2" y2="76.4"/>
				<path fill="#B7B7B7" d="M21.2,76.8c0,0.2,0.2,0.4,0.4,0.6"/>
				<path fill="#B7B7B7" d="M21,76.6C21,76.6,21,76.8,21,76.6C21.2,76.8,21.2,76.8,21,76.6"/>
				<path fill="#B7B7B7" d="M21.2,76.6L21.2,76.6C21.2,76.8,21.2,76.8,21.2,76.6"/>
				<path fill="#B7B7B7" d="M22.8,76.8L22.8,76.8C23,77,23.2,77,23.2,77"/>
				<path fill="#B7B7B7" d="M22.6,76.8l0.2,0.2c0.2,0,0.2,0,0.4,0"/>
				<path fill="#B7B7B7" d="M22.6,76.8l0.2,0.2c0.2,0,0.2,0,0.4,0"/>
				<path fill="#B7B7B7" d="M23.4,78.2c0.2,0,0.4,0,0.6-0.2"/>
				<path fill="#B7B7B7" d="M24,78.2l0.2-0.4l0,0"/>
				<line fill="#B7B7B7" x1="24.2" y1="78.2" x2="24.4" y2="77.6"/>
				<path fill="#B7B7B7" d="M24.2,78L24.2,78L24.2,78"/>
				<path fill="#B7B7B7" d="M24.2,78L24.2,78L24.2,78"/>
				<line fill="#B7B7B7" x1="24.2" y1="78" x2="24.4" y2="77.6"/>
				<path fill="#B7B7B7" d="M23.4,76.4c0,0-0.2,0-0.2-0.2H23"/>
				<path fill="#B7B7B7" d="M23.4,76.4l-0.2-0.2c-0.2,0-0.2,0-0.4,0"/>
				<path fill="#B7B7B7" d="M23.6,76.4c0,0-0.2-0.2-0.4-0.2c-0.2,0-0.2,0-0.4,0"/>
				<path fill="#B7B7B7" d="M23,75c0.2,0.4,0.4,0.6,0.8,0.6H24"/>
				<path fill="#B7B7B7" d="M76.2,20.4L76.2,20.4C76.2,20.6,76.2,20.6,76.2,20.4"/>
				<path fill="#B7B7B7" d="M76.2,20.6L76.2,20.6C76,20.6,76,20.6,76.2,20.6"/>
				<path fill="#B7B7B7" d="M76.8,20.4c-0.2,0-0.4,0-0.6,0.2"/>
				<path fill="#B7B7B7" d="M76.2,20.4L76,20.8l0,0"/>
				<line fill="#B7B7B7" x1="76.2" y1="20.4" x2="76" y2="21"/>
				<line fill="#B7B7B7" x1="76.2" y1="20.6" x2="76" y2="20.8"/>
				<path fill="#B7B7B7" d="M77.6,21.8L77.6,21.8c-0.2-0.2-0.4-0.2-0.4-0.2"/>
				<path fill="#B7B7B7" d="M77.8,21.8l-0.2-0.2c-0.2,0-0.2,0-0.4,0"/>
				<path fill="#B7B7B7" d="M77.8,21.8l-0.2-0.2c-0.2,0-0.2,0-0.4,0"/>
				<path fill="#B7B7B7" d="M79.2,21.8c0-0.2-0.2-0.4-0.4-0.6"/>
				<line fill="#B7B7B7" x1="79.4" y1="21.8" x2="79.2" y2="22.2"/>
				<path fill="#B7B7B7" d="M79.2,21.6c0,0-0.2,0.2-0.2,0.4v0.2"/>
				<path fill="#B7B7B7" d="M79.2,22"/>
				<path fill="#B7B7B7" d="M79.2,22C79.2,22,79.2,21.8,79.2,22C79.2,21.8,79.2,21.8,79.2,22"/>
				<path fill="#B7B7B7" d="M79.2,22L79.2,22C79.2,21.8,79.2,21.8,79.2,22"/>
				<line fill="#B7B7B7" x1="79.2" y1="21.8" x2="79" y2="22.2"/>
				<path fill="#B7B7B7" d="M77,78.2c-0.2,0-0.4,0-0.6-0.2"/>
				<path fill="#B7B7B7" d="M76.2,78.2L76,77.8l0,0"/>
				<line fill="#B7B7B7" x1="76.2" y1="78.2" x2="76" y2="77.6"/>
				<path fill="#B7B7B7" d="M76.2,78L76.2,78L76.2,78"/>
				<path fill="#B7B7B7" d="M76.2,78L76.2,78C76,78,76,78,76.2,78"/>
				<line fill="#B7B7B7" x1="76.2" y1="78" x2="76" y2="77.6"/>
				<path fill="#B7B7B7" d="M77,76.4c0,0,0.2,0,0.2-0.2h0.2"/>
				<path fill="#B7B7B7" d="M77,76.4l0.2-0.2c0.2,0,0.2,0,0.4,0"/>
				<path fill="#B7B7B7" d="M76.8,76.4c0,0,0.2-0.2,0.4-0.2c0.2,0,0.2,0,0.4,0"/>
				<path fill="#B7B7B7" d="M77.4,75c-0.2,0.4-0.4,0.6-0.8,0.6c-0.2,0-0.2,0-0.2,0"/>
				<path fill="#B7B7B7" d="M77.6,76.8L77.6,76.8C77.4,77,77.2,77,77.2,77"/>
				<path fill="#B7B7B7" d="M77.8,76.8L77.6,77c-0.2,0-0.2,0-0.4,0"/>
				<path fill="#B7B7B7" d="M77.8,76.8L77.6,77c-0.2,0-0.2,0-0.4,0"/>
				<path fill="#B7B7B7" d="M79.2,76.8c0,0.2-0.2,0.4-0.4,0.6"/>
				<line fill="#B7B7B7" x1="79.4" y1="76.8" x2="79.2" y2="76.2"/>
				<path fill="#B7B7B7" d="M79.2,77c0,0-0.2-0.2-0.2-0.4v-0.2"/>
				<path fill="#B7B7B7" d="M79.2,76.6"/>
				<path fill="#B7B7B7" d="M79.2,76.6C79.2,76.6,79.2,76.8,79.2,76.6C79.2,76.8,79.2,76.8,79.2,76.6"/>
				<path fill="#B7B7B7" d="M79.2,76.6L79.2,76.6C79.2,76.8,79.2,76.8,79.2,76.6"/>
				<line fill="#B7B7B7" x1="79.2" y1="76.6" x2="79" y2="76.4"/>
				<path fill="#B7B7B7" d="M75,75.6L75,75.6c-0.4,0.2-0.4,0.4-0.4,0.4"/>
				<path fill="#B7B7B7" d="M75,75.6L75,75.6c-0.2,0-0.2,0.2-0.2,0.2"/>
				<path fill="#B7B7B7" d="M78.4,73.8c0.6,0.4,0.8,1,0.8,1.8c0,0,0,0,0,0.2"/>
				<path fill="#B7B7B7" d="M75.4,73.8c0.4-0.4,1-0.6,1.6-0.6c0,0,0,0,0.2,0"/>
				<path fill="#B7B7B7" d="M75.4,77.4c-0.4-0.4-0.8-1-0.8-1.6"/>
				<path fill="#B7B7B7" d="M78.8,77.2c-0.4,0.6-1,0.8-1.8,0.8c0,0,0,0-0.2,0"/>
				<path fill="#B7B7B7" d="M76,73.4c0.2-0.2,0.6-0.2,1-0.2l0,0"/>
				<path fill="#B7B7B7" d="M75.4,73.8c0.2-0.2,0.4-0.2,0.6-0.4"/>
				<path fill="#B7B7B7" d="M75.2,77.6c-0.2-0.2-0.4-0.6-0.6-0.8"/>
				<path fill="#B7B7B7" d="M78,78c-0.2,0.2-0.6,0.2-1,0.2l0,0"/>
				<path fill="#B7B7B7" d="M78.8,77.4c-0.2,0.2-0.4,0.4-0.8,0.6"/>
				<path fill="#B7B7B7" d="M77,22.2c0,0,0.2,0,0.2,0.2h0.2"/>
				<path fill="#B7B7B7" d="M77,22.2l0.2,0.2c0.2,0,0.2,0,0.4,0"/>
				<path fill="#B7B7B7" d="M76.8,22.2c0,0,0.2,0.2,0.4,0.2c0.2,0,0.2,0,0.4,0"/>
				<path fill="#B7B7B7" d="M24.8,77.4c0.6-0.4,0.8-1,0.8-1.8c0,0,0,0,0-0.2"/>
				<path fill="#B7B7B7" d="M25,77.6c0.2-0.2,0.4-0.6,0.6-0.8"/>
				<path fill="#B7B7B7" d="M21.4,74c-0.2,0.2-0.2,0.4-0.4,0.6"/>
				<path fill="#B7B7B7" d="M21.6,74.2c-0.4,0.4-0.6,1-0.6,1.6c0,0,0,0,0,0.2"/>
				<path fill="#B7B7B7" d="M78.2,24.4L78.2,24.4c0.4,0.2,0.6,0,0.6,0"/>
				<path fill="#B7B7B7" d="M78.4,24.4L78.4,24.4c0.2,0,0.2,0,0.4,0"/>
				<path fill="#B7B7B7" d="M62.2,56.6h-10h-1.8H37.6c-6.2,0-7.4-1.4-7.4-6v-1.4V48c0-4.6,1.2-6,7.4-6h12.8H52h10
					c6.2,0,7.4,1.4,7.4,6v1.4v1.4C69.4,55.2,68.2,56.6,62.2,56.6z"/>
				<path fill="#B7B7B7" d="M65.6,50.6c0,2.6-1,3-5.4,3h-7h-3H38.8c-4.4,0-5.4-0.4-5.4-3v-1.4V48c0-2.6,1-3,5.4-3h11.4h3h7
					c4.4,0,5.4,0.4,5.4,3v1.4V50.6z"/>
				<path fill="#B7B7B7" d="M78.6,79.4"/>
				<g>
					<path fill="#B7B7B7" d="M23.4,75.6"/>
				</g>
				<path fill="#B7B7B7" d="M77,72.4L77,72.4C77,72.4,76.8,72.4,77,72.4c-0.2,0-0.4-0.4-0.4-0.4s0,0,0-0.2l0,0"/>
				<path fill="#B7B7B7" d="M76.4,71.4L76.4,71.4C76.4,71.4,76.2,71.4,76.4,71.4C76.2,71.4,76,71,76,71s0,0,0-0.2l0,0"/>
				<path fill="#B7B7B7" d="M75.8,70.2C75.8,70.2,75.8,70.4,75.8,70.2C75.8,70.4,75.6,70.2,75.8,70.2c-0.2,0-0.4-0.4-0.4-0.4
					s0,0,0-0.2l0,0"/>
				<path fill="#B7B7B7" d="M75.2,69.2L75.2,69.2C75.2,69.4,75,69.2,75.2,69.2c-0.2,0-0.4-0.4-0.4-0.4s0,0,0-0.2l0,0"/>
				<path fill="#B7B7B7" d="M74.6,73.4L74.6,73.4L74.6,73.4c0-0.2,0-0.6,0-0.6l0,0l0,0"/>
				<path fill="#B7B7B7" d="M74.2,72.2L74.2,72.2C74.2,72.2,74.4,72.2,74.2,72.2c0-0.2,0-0.6,0-0.6l0,0l0,0"/>
				<path fill="#B7B7B7" d="M73.8,71.2L73.8,71.2C74,71.2,74,71,73.8,71.2c0-0.2,0-0.6,0-0.6l0,0l0,0"/>
				<path fill="#B7B7B7" d="M73.6,70L73.6,70L73.6,70c0-0.2,0-0.6,0-0.6l0,0l0,0"/>
				<path fill="#B7B7B7" d="M79.4,74.8c0.2,0.2,0.2,0.6,0.2,1l0,0"/>
				<path fill="#B7B7B7" d="M78.6,73.8c0.2,0.2,0.4,0.6,0.6,0.8"/>
				<path fill="#B7B7B7" d="M74.6,76.6c0-0.2-0.2-0.4-0.2-0.6"/>
				<g>
					<circle fill="#B7B7B7" cx="77" cy="75.6" r="0.8"/>
					<path fill="#B7B7B7" d="M77,75.6"/>
				</g>
				<g>
					<circle fill="#B7B7B7" cx="77.6" cy="77" r="0.4"/>
					<path fill="#B7B7B7" d="M77.6,77"/>
				</g>
				<g>
					<circle fill="#B7B7B7" cx="76.4" cy="74.4" r="0.4"/>
					<path fill="#B7B7B7" d="M76.4,74.4"/>
				</g>
				<g>
					<circle fill="#B7B7B7" cx="78.6" cy="75" r="0.4"/>
					<path fill="#B7B7B7" d="M78.6,75"/>
				</g>
				<g>
					<circle fill="#B7B7B7" cx="75.4" cy="76.4" r="0.4"/>
					<path fill="#B7B7B7" d="M75.4,76.4"/>
				</g>
				<path fill="#B7B7B7" d="M74.8,68.6L74.8,68.6L74.8,68.6z M74.8,68.6l2.6,4.4c-0.2,0-0.4,0-0.4,0c-1,0-1.8,0.4-2.2,1.2l-1.4-5V69
					c0-0.4,0.4-0.8,0.8-0.8C74.4,68.2,74.6,68.2,74.8,68.6L74.8,68.6z"/>
				<path fill="#B7B7B7" d="M74.8,68.6L74.8,68.6c-0.2-0.2-0.4-0.4-0.8-0.4s-0.8,0.4-0.8,0.8v0.2l1.4,5c0.4-0.8,1.2-1.2,2.2-1.2
					c0.2,0,0.4,0,0.4,0L74.8,68.6z"/>
				<path fill="#B7B7B7" d="M79.6,74L79.6,74C79.6,74.2,79.6,74.2,79.6,74z M80,75.6c0,1.6-1.4,3-3,3c-1.4,0-2.4-0.8-2.8-2v-0.2
					l-2-6.8c0-0.2-0.2-0.4-0.2-0.8c0-1.2,1-2.2,2.2-2.2c0.8,0,1.4,0.4,1.8,1l0.2,0.2l3.6,6V74C79.8,74.6,80,75.2,80,75.6z"/>
				<path fill="#B7B7B7" d="M79.6,75.8L79.6,75.8c0,0.4,0,0.8-0.2,1c-0.2,0.4-0.2,0.4-0.4,0.6h-0.2v-0.2c0,0,0,0,0-0.2l0.2-0.6
					c0-0.2,0.2-0.4,0.2-0.4C79.2,75.8,79.4,75.8,79.6,75.8C79.4,75.8,79.6,75.8,79.6,75.8z"/>
				<path fill="#B7B7B7" d="M77,78.2C77,78.2,76.8,78.2,77,78.2c-0.2,0-0.4,0-0.8,0s-0.6-0.2-0.8-0.4c-0.2-0.2-0.2-0.2,0-0.2
					c0,0,0,0,0.2,0c0,0,0,0,0.2,0c0,0,0.4,0.2,0.6,0.2S77,78,77,78C76.8,78,76.8,78,77,78.2C76.8,78.2,77,78.2,77,78.2z"/>
				<path fill="#B7B7B7" d="M78.4,73.8L78.4,73.8C78.6,73.8,78.6,73.8,78.4,73.8c0.2,0,0.2,0,0.2,0s0,0,0-0.2c0,0-0.4-0.2-0.6-0.4
					C77.6,73,77.2,73,77.2,73H77l0,0l0,0l0,0c0,0,0.4,0.2,0.6,0.2C78,73.6,78.4,73.8,78.4,73.8z"/>
				<path fill="#B7B7B7" d="M74.6,76L74.6,76c-0.2,0.2-0.4,0-0.4,0s0-0.8,0.2-1.2C74.6,74.4,75,74,75,74c0.2,0,0.2,0,0.2,0
					s0.2,0.2,0.2,0.4v0.2L74.8,76C75,75.8,75,75.8,74.6,76C74.8,76,74.6,76,74.6,76z"/>
				<path fill="#B7B7B7" d="M80,75.6c0,1.6-1.4,3-3,3c-1.4,0-2.4-0.8-2.8-2.2l-2-6.8C72,69.4,72,69,72,68.8c0-1.2,1-2,2-2
					c0.8,0,1.4,0.4,1.8,1l3.6,6.2C79.8,74.6,80,75,80,75.6z"/>
				<path fill="#B7B7B7" d="M76.6,72.6L76.6,72.6c-0.6,0-1.2,0.4-1.6,0.6v-0.4h-0.2v0.6l0,0C75.4,73,76,72.8,76.6,72.6L76.6,72.6
					L76.6,72.6z"/>
				<polygon fill="#B7B7B7" points="78,79.4 77.8,78.8 78.2,78.6 				"/>
				<path fill="#B7B7B7" d="M78.4,78.6L78.4,78.6V79l0,0l0,0l0,0V78.6C78.6,78.6,78.6,78.6,78.4,78.6L78.4,78.6z M78.6,79
					C78.6,79,78.4,79,78.6,79l-0.2-0.4v-0.2l0,0h0.2l0.2,0.2C78.8,79,78.8,79,78.6,79L78.6,79z"/>
				<polygon fill="#B7B7B7" points="78.8,78.4 79,78.8 79,79 				"/>
				<path fill="#B7B7B7" d="M78,78L78,78C78,78,77.8,78,78,78C77.8,78,78,78,78,78L78,78z"/>
				<path fill="#B7B7B7" d="M79.4,74.8L79.4,74.8C79.4,74.6,79.4,74.6,79.4,74.8C79.4,74.6,79.2,74.6,79.4,74.8L79.4,74.8z"/>
				<path fill="#B7B7B7" d="M74.6,76.8L74.6,76.8C74.6,76.6,74.6,76.6,74.6,76.8C74.6,76.6,74.6,76.6,74.6,76.8L74.6,76.8z"/>
				<path fill="#B7B7B7" d="M76,73.2L76,73.2C76,73.4,75.8,73.4,76,73.2C75.8,73.4,76,73.4,76,73.2C76,73.4,76,73.2,76,73.2z"/>
				<path fill="#B7B7B7" d="M74.4,76l-1.8-6.4c0-0.2-0.2-0.4-0.2-0.6c0-1,0.8-1.6,1.6-1.6c0.6,0,1.2,0.4,1.4,0.8c0,0,0,0,0,0.2
					l3.4,5.8c0.4,0.4,0.6,1.2,0.6,1.8c0,1.4-1.2,2.6-2.6,2.6C75.6,78.4,74.4,77.2,74.4,76z"/>
				<g>
					<circle fill="#B7B7B7" cx="77" cy="75.6" r="2.6"/>
					<path fill="#B7B7B7" d="M77,75.6"/>
				</g>
				<path fill="#B7B7B7" d="M23.4,72.4L23.4,72.4C23.4,72.4,23.6,72.4,23.4,72.4c0.2,0,0.4-0.4,0.4-0.4s0,0,0-0.2s0,0,0,0"/>
				<path fill="#B7B7B7" d="M24,71.4L24,71.4L24,71.4c0.2,0,0.4-0.4,0.4-0.4s0,0,0-0.2l0,0"/>
				<path fill="#B7B7B7" d="M24.6,70.2C24.6,70.2,24.6,70.4,24.6,70.2C24.6,70.4,24.6,70.2,24.6,70.2c0.2,0,0.4-0.4,0.4-0.4
					s0,0,0-0.2l0,0"/>
				<path fill="#B7B7B7" d="M25.2,69.2L25.2,69.2C25.2,69.4,25.2,69.2,25.2,69.2c0.2,0,0.4-0.4,0.4-0.4s0,0,0-0.2l0,0"/>
				<path fill="#B7B7B7" d="M25.8,73.4L25.8,73.4L25.8,73.4c0-0.2,0-0.6,0-0.6l0,0l0,0"/>
				<path fill="#B7B7B7" d="M26.2,72.2L26.2,72.2C26,72.2,26,72.2,26.2,72.2c0-0.2,0-0.6,0-0.6l0,0l0,0"/>
				<path fill="#B7B7B7" d="M26.6,71.2C26.6,71.2,26.4,71.2,26.6,71.2C26.4,71.2,26.4,71,26.6,71.2c0-0.2,0-0.6,0-0.6l0,0l0,0"/>
				<path fill="#B7B7B7" d="M26.8,70L26.8,70L26.8,70c0-0.2,0-0.6,0-0.6l0,0l0,0"/>
				<path fill="#B7B7B7" d="M25.2,74.2c-0.4-0.4-1-0.8-1.6-0.8"/>
				<path fill="#B7B7B7" d="M21.6,77.2c0.4,0.6,1,0.8,1.8,0.8c0,0,0,0,0.2,0"/>
				<path fill="#B7B7B7" d="M25.8,76.6c0.2-0.2,0.2-0.6,0.2-1l0,0"/>
				<path fill="#B7B7B7" d="M24.2,73.4c-0.2,0-0.4-0.2-0.6-0.2"/>
				<path fill="#B7B7B7" d="M25.2,74c-0.2-0.2-0.6-0.4-0.8-0.6"/>
				<path fill="#B7B7B7" d="M22.4,78c0.2,0.2,0.6,0.2,1,0.2l0,0"/>
				<path fill="#B7B7B7" d="M21.4,77.4c0.2,0.2,0.4,0.4,0.8,0.6"/>
				<g>
					<path fill="#B7B7B7" d="M23.4,75.6"/>
					<circle fill="#B7B7B7" cx="23.4" cy="75.6" r="0.8"/>
				</g>
				<g>
					<circle fill="#B7B7B7" cx="22.8" cy="77" r="0.4"/>
					<path fill="#B7B7B7" d="M22.8,77"/>
				</g>
				<g>
					<circle fill="#B7B7B7" cx="24" cy="74.4" r="0.4"/>
					<path fill="#B7B7B7" d="M24,74.4"/>
				</g>
				<g>
					<circle fill="#B7B7B7" cx="21.8" cy="75" r="0.4"/>
					<path fill="#B7B7B7" d="M21.8,75"/>
				</g>
				<g>
					<circle fill="#B7B7B7" cx="25" cy="76.4" r="0.4"/>
					<path fill="#B7B7B7" d="M25,76.4"/>
				</g>
				<path fill="#B7B7B7" d="M25.6,68.6L25.6,68.6L25.6,68.6z M25.6,68.6L23,73c0.2,0,0.4,0,0.4,0c1,0,1.8,0.4,2.2,1.2l1.4-5V69
					c0-0.4-0.4-0.8-0.8-0.8C26,68.2,25.8,68.2,25.6,68.6L25.6,68.6z"/>
				<path fill="#B7B7B7" d="M25.6,68.6L25.6,68.6c0.2-0.2,0.4-0.4,0.8-0.4s0.8,0.4,0.8,0.8v0.2l-1.4,5c-0.4-0.8-1.2-1.2-2.2-1.2
					c-0.2,0-0.4,0-0.4,0L25.6,68.6z"/>
				<path fill="#B7B7B7" d="M20.8,74L20.8,74C20.8,74.2,20.8,74.2,20.8,74z M20.4,75.6c0,1.6,1.4,3,3,3c1.4,0,2.4-0.8,2.8-2v-0.2
					l2-6.8c0-0.2,0.2-0.4,0.2-0.8c0-1.2-1-2.2-2.2-2.2c-0.8,0-1.4,0.4-1.8,1l-0.2,0.2l-3.6,6V74C20.6,74.6,20.4,75.2,20.4,75.6z"/>
				<path fill="#B7B7B7" d="M20.8,75.8L20.8,75.8c0,0.4,0,0.8,0.2,1c0.2,0.4,0.2,0.4,0.4,0.6h0.2v-0.2c0,0,0,0,0-0.2l-0.2-0.6
					c0-0.2-0.2-0.4-0.2-0.4C21,75.8,21,75.8,20.8,75.8C21,75.8,20.8,75.8,20.8,75.8z"/>
				<path fill="#B7B7B7" d="M23.4,78.2L23.4,78.2c0.2,0,0.4,0,0.8,0s0.6-0.2,0.8-0.4c0.2-0.2,0.2-0.2,0-0.2c0,0,0,0-0.2,0
					c0,0,0,0-0.2,0c0,0-0.4,0.2-0.6,0.2S23.4,78,23.4,78C23.6,78,23.6,78,23.4,78.2L23.4,78.2z"/>
				<path fill="#B7B7B7" d="M25.2,74.4C25.2,74.2,25.2,74.2,25.2,74.4C25.2,74.2,25.2,74.2,25.2,74.4c0-0.2,0-0.2,0-0.2s0,0,0.2,0
					c0,0,0.2,0.4,0.4,0.6c0.2,0.4,0.2,0.8,0.2,0.8v0.2l0,0l0,0l0,0c0,0-0.2-0.4-0.2-0.6C25.4,74.8,25.2,74.4,25.2,74.4z"/>
				<path fill="#B7B7B7" d="M23.6,73.4L23.6,73.4c0.2-0.2,0-0.4,0-0.4s-0.8,0-1.2,0.2c-0.4,0.2-0.8,0.6-0.8,0.6c0,0.2,0,0.2,0,0.2
					s0.2,0.2,0.4,0.2h0.2l1.4-0.6C23.4,73.6,23.6,73.6,23.6,73.4L23.6,73.4z"/>
				<path fill="#B7B7B7" d="M20.4,75.6c0,1.6,1.4,3,3,3c1.4,0,2.4-0.8,2.8-2.2l2-6.8c0.2-0.2,0.2-0.6,0.2-0.8c0-1.2-1-2-2-2
					c-0.8,0-1.4,0.4-1.8,1L21,74C20.6,74.6,20.4,75,20.4,75.6z"/>
				<path fill="#B7B7B7" d="M22.2,78C22.2,78,22.4,78,22.2,78C22.4,78,22.4,78,22.2,78C22.4,78,22.4,78,22.2,78
					C22.4,78,22.2,78,22.2,78z"/>
				<path fill="#B7B7B7" d="M21,74.8L21,74.8C21,74.6,21,74.6,21,74.8C21,74.6,21.2,74.6,21,74.8L21,74.8z"/>
				<path fill="#B7B7B7" d="M25.8,76.8L25.8,76.8C25.8,76.6,25.8,76.6,25.8,76.8C25.8,76.6,25.6,76.6,25.8,76.8
					C25.6,76.8,25.8,76.8,25.8,76.8z"/>
				<path fill="#B7B7B7" d="M24.2,73.2C24.2,73.2,24.4,73.2,24.2,73.2C24.4,73.4,24.4,73.4,24.2,73.2C24.4,73.4,24.4,73.4,24.2,73.2
					C24.4,73.4,24.2,73.2,24.2,73.2z"/>
				<path fill="#B7B7B7" d="M21,76.6"/>
				<path fill="#B7B7B7" d="M26,76l1.8-6.4c0-0.2,0.2-0.4,0.2-0.6c0-1-0.8-1.6-1.6-1.6c-0.6,0-1.2,0.4-1.4,0.8c0,0,0,0,0,0.2
					l-3.4,5.8C21.2,74.6,21,75.4,21,76c0,1.4,1.2,2.6,2.6,2.6C24.8,78.4,26,77.2,26,76z"/>
				<g>
					<path fill="#B7B7B7" d="M23.4,75.6"/>
					<circle fill="#B7B7B7" cx="23.4" cy="75.6" r="2.6"/>
				</g>
				<path fill="#B7B7B7" d="M21.8,24.6c-0.6-0.4-0.8-1-0.8-1.8c0,0,0,0,0-0.2"/>
				<path fill="#B7B7B7" d="M21,23.8c-0.2-0.2-0.2-0.6-0.2-1l0,0"/>
				<path fill="#B7B7B7" d="M21.6,24.8c-0.2-0.2-0.4-0.6-0.6-0.8"/>
				<path fill="#B7B7B7" d="M25.8,22c0,0.2,0.2,0.4,0.2,0.6"/>
				<g>
					<circle fill="#B7B7B7" cx="23.4" cy="22.8" r="0.8"/>
					<path fill="#B7B7B7" d="M23.4,22.8"/>
				</g>
				<g>
					<path fill="#B7B7B7" d="M22.8,21.6"/>
					<circle fill="#B7B7B7" cx="22.8" cy="21.6" r="0.4"/>
				</g>
				<g>
					<circle fill="#B7B7B7" cx="24" cy="24.2" r="0.4"/>
					<path fill="#B7B7B7" d="M24,24.2"/>
				</g>
				<g>
					<circle fill="#B7B7B7" cx="21.8" cy="23.6" r="0.4"/>
					<path fill="#B7B7B7" d="M21.8,23.6"/>
				</g>
				<g>
					<circle fill="#B7B7B7" cx="25" cy="22.2" r="0.4"/>
					<path fill="#B7B7B7" d="M25,22.2"/>
				</g>
				<path fill="#B7B7B7" d="M20.8,24.4L20.8,24.4L20.8,24.4z M20.4,22.8c0-1.6,1.4-3,3-3c1.4,0,2.4,0.8,2.8,2V22l2,6.8
					c0,0.2,0.2,0.4,0.2,0.8c0,1.2-1,2.2-2.2,2.2c-0.8,0-1.4-0.4-1.8-1l-0.2-0.2l-3.6-6v-0.2C20.6,23.8,20.4,23.4,20.4,22.8z"/>
				<path fill="#B7B7B7" d="M21,23.8L21,23.8C21,24,21,24,21,23.8C21,24,21.2,24,21,23.8L21,23.8z"/>
				<path fill="#B7B7B7" d="M25.8,21.8L25.8,21.8C25.8,22,25.8,22,25.8,21.8C25.8,22,25.6,22,25.8,21.8
					C25.6,21.8,25.8,21.8,25.8,21.8z"/>
				<g>
					<path fill="#B7B7B7" d="M23.4,22.8"/>
				</g>
				<g>
					<path fill="#B7B7B7" d="M50.2,49.2"/>
				</g>
				<path fill="#B7B7B7" d="M77.4,23.6C77.2,23.2,77,23,76.6,23c-0.2,0-0.2,0-0.2,0"/>
				<g>
					<circle fill="#B7B7B7" cx="77" cy="22.8" r="0.8"/>
					<path fill="#B7B7B7" d="M77,22.8"/>
				</g>
				<g>
					<path fill="#B7B7B7" d="M77.6,21.6"/>
					<circle fill="#B7B7B7" cx="77.6" cy="21.6" r="0.4"/>
				</g>
				<g>
					<circle fill="#B7B7B7" cx="76.4" cy="24.2" r="0.4"/>
					<path fill="#B7B7B7" d="M76.4,24.2"/>
				</g>
				<g>
					<circle fill="#B7B7B7" cx="78.6" cy="23.6" r="0.4"/>
					<path fill="#B7B7B7" d="M78.6,23.6"/>
				</g>
				<g>
					<circle fill="#B7B7B7" cx="75.4" cy="22.2" r="0.4"/>
					<path fill="#B7B7B7" d="M75.4,22.2"/>
				</g>
				<path fill="#B7B7B7" d="M74.8,30L74.8,30L74.8,30z"/>
				<path fill="#B7B7B7" d="M79.6,24.4L79.6,24.4L79.6,24.4z M80,22.8c0-1.6-1.4-3-3-3c-1.4,0-2.4,0.8-2.8,2V22l-2,6.8
					c0,0.2-0.2,0.4-0.2,0.8c0,1.2,1,2.2,2.2,2.2c0.8,0,1.4-0.4,1.8-1l0.2-0.2l3.6-6v-0.2C79.8,23.8,80,23.4,80,22.8z"/>
				<path fill="#B7B7B7" d="M79.4,23.8L79.4,23.8C79.4,24,79.4,24,79.4,23.8C79.4,24,79.2,24,79.4,23.8L79.4,23.8z"/>
				<path fill="#B7B7B7" d="M74.6,21.8L74.6,21.8C74.6,22,74.6,22,74.6,21.8C74.6,22,74.6,22,74.6,21.8L74.6,21.8z"/>
				<path fill="#B7B7B7" d="M50.2,39.8c0,0,10.4,0,11.6,0c1.2,0,2.2,0,3.6-0.6c1.2-0.6,2-2,2.4-3c0.6-0.8,1.8-3.6,2.4-4.6
					c0.6-1.2,1.2-3.4,1.6-4.8c0.4-1.4,1.4-5,1.6-5.2c0.6-1.4,2-2.4,3.6-2.4c2.2,0,4,1.8,4,4c0,0.6-0.2,1.2-0.4,1.8
					c-0.2,0.4-3.4,5.8-4.2,7c-0.4,0.6-1.2,2.4-1.6,3.6s-1.6,4.6-1.8,6c-0.2,1.2-0.4,3-0.4,3.8c0,1,0,4,0,4s0,3.2,0,4
					c0,1,0.2,2.6,0.4,3.8c0.2,1.2,1.4,4.6,1.8,6c0.4,1.2,1.4,3.2,1.6,3.6c0.6,1.2,4,6.8,4.2,7c0.2,0.6,0.4,1.2,0.4,1.8
					c0,2.2-1.8,4-4,4c-1.6,0-3-1-3.6-2.4c-0.2-0.2-1.2-3.8-1.6-5.2c-0.4-1.4-1-3.6-1.6-4.8c-0.6-1.2-1.8-3.8-2.4-4.6s-1.2-2.4-2.4-3
					C64.2,59,63,59,61.8,59c-1.2,0-11.6,0-11.6,0s-10.4,0-11.6,0c-1.2,0-2.2,0-3.6,0.6c-1.2,0.6-2,2-2.4,3c-0.6,0.8-1.8,3.6-2.4,4.6
					c-0.6,1.2-1.2,3.4-1.6,4.8s-1.4,5-1.6,5.2c-0.6,1.4-2,2.4-3.6,2.4c-2.2,0-4-1.8-4-4c0-0.6,0.2-1.2,0.4-1.8
					c0.2-0.4,3.4-5.8,4.2-7c0.4-0.6,1.2-2.4,1.6-3.6c0.4-1.2,1.6-4.6,1.8-6c0.2-1.2,0.4-3,0.4-3.8c0-1,0-4,0-4l0,0c0,0,0-3.2,0-4
					c0-1-0.2-2.6-0.4-3.8c-0.2-1.2-1.4-4.6-1.8-6c-0.4-1.2-1.4-3.2-1.6-3.6c-0.6-1.2-4-6.8-4.2-7c-0.2-0.6-0.4-1.2-0.4-1.8
					c0-2.2,1.8-4,4-4c1.6,0,3,1,3.6,2.4c0.2,0.2,1.2,3.8,1.6,5.2c0.4,1.4,1,3.6,1.6,4.8c0.6,1.2,1.8,3.8,2.4,4.6
					c0.6,0.8,1.2,2.4,2.4,3s2.4,0.6,3.6,0.6c1.2,0,12,0,12,0"/>
				<g>
					<path fill="#B7B7B7" d="M77,22.8"/>
				</g>
				<g>
					<path fill="#B7B7B7" d="M51.8,51.4"/>
				</g>
			</g>
			<g>
				<g>
					<circle fill="#B7B7B7" cx="77" cy="22.8" r="2.6"/>
					<g>
						<path fill="#B7B7B7" d="M75,22.8C75,22.8,75,22.6,75,22.8C75.2,22.6,75.2,22.6,75,22.8C75.2,22.6,75.2,22.8,75,22.8L75,22.8z"
							/>
						<g>
							<circle fill="#B7B7B7" cx="77" cy="22.8" r="0.8"/>
							<path fill="#B7B7B7" d="M77,22.8"/>
						</g>
						<g>
							<path fill="#B7B7B7" d="M77,22.8"/>
						</g>
						<g>
							<path fill="#B7B7B7" d="M77,22.8"/>
						</g>
						<g>
							<path fill="#B7B7B7" d="M77,22.8"/>
						</g>
					</g>
				</g>
				<circle fill="#B7B7B7" cx="77" cy="22.8" r="0.6"/>
			</g>
			<g>
				<g>
					<g>
						<g>
							<path fill="#B7B7B7" d="M77,75.6"/>
						</g>
						<g>
							<path fill="#B7B7B7" d="M77,75.6"/>
						</g>
						<g>
							<path fill="#B7B7B7" d="M77,75.6"/>
						</g>
						<g>
							<path fill="#B7B7B7" d="M77,75.6"/>
							<circle fill="#B7B7B7" cx="77" cy="75.6" r="2.6"/>
						</g>
					</g>
				</g>
			</g>
			<g>
				<g>
					<circle fill="#B7B7B7" cx="23.4" cy="22.8" r="2.6"/>
					<g>
						<g>
							<circle fill="#B7B7B7" cx="23.4" cy="22.8" r="0.8"/>
							<path fill="#B7B7B7" d="M23.4,22.8"/>
						</g>
						<g>
							<path fill="#B7B7B7" d="M23.4,22.8"/>
						</g>
						<g>
							<path fill="#B7B7B7" d="M23.4,22.8"/>
						</g>
						<g>
							<path fill="#B7B7B7" d="M23.4,22.8"/>
						</g>
					</g>
				</g>
				<circle fill="#B7B7B7" cx="23.4" cy="22.8" r="0.6"/>
			</g>
			<g>
				<g>
					<g>
						<g>
							<path fill="#B7B7B7" d="M23.4,75.6"/>
						</g>
						<g>
							<path fill="#B7B7B7" d="M23.4,75.6"/>
						</g>
						<g>
							<path fill="#B7B7B7" d="M23.4,75.6"/>
						</g>
						<g>
							<path fill="#B7B7B7" d="M23.4,75.6"/>
							<circle fill="#B7B7B7" cx="23.4" cy="75.6" r="2.6"/>
						</g>
					</g>
				</g>
			</g>
		</g>
		<g>
			<g>
				<g>
					<g>
						<g>
							<path fill="#B7B7B7" d="M76.8,22.8"/>
						</g>
						<g>
							<path fill="#B7B7B7" d="M76.8,22.8"/>
						</g>
					</g>
				</g>
				<path fill="#B7B7B7" d="M76.4,24.2c-0.2-0.2-0.4-0.4-0.6-0.6c-0.2,0-0.6,0-1.2,0.2c-0.6,0-1.8,0.4-2.6,0.4
					c-0.8,0-1.2-0.2-1.8-0.4c-0.6-0.2-15-9.2-15-9.2s0-0.2,0.2-0.6c0.2-0.4,1-1,2-0.6S70,18,72,18.8c2,0.8,3.4,2,3.6,2.2
					s0.6,0.4,0.8,0.6c0.2,0,0.6,0,0.8,0c0.2,0.2,0.4,0.4,0.6,0.6c0.2,0,0.6,0,1.2-0.2c0.6,0,1.8-0.4,2.6-0.4c0.8,0,1.2,0.2,1.8,0.4
					c0.6,0.2,15,9.2,15,9.2s0,0.2-0.2,0.6s-1,1-2,0.6S83.6,27.8,81.6,27s-3.4-2-3.6-2.2s-0.6-0.4-0.8-0.6
					C76.8,24.2,76.6,24.2,76.4,24.2z"/>
			</g>
		</g>
		<g>
			<g>
				<g>
					<g>
						<g>
							<path fill="#B7B7B7" d="M77,75.8"/>
						</g>
						<g>
							<path fill="#B7B7B7" d="M77,75.8"/>
						</g>
					</g>
				</g>
				<path fill="#B7B7B7" d="M77.4,77c-0.2,0-0.6,0-0.8,0c-0.2,0-0.6,0.4-0.8,0.4c-0.2,0.2-1.8,1.2-3.8,1.8c-2,0.6-14,3.6-15.2,3.8
					c-1,0.2-1.8-0.4-2-0.8s-0.2-0.6-0.2-0.6s15.2-7.2,15.8-7.6c0.6-0.2,1-0.4,1.8-0.2c0.8,0.2,2,0.6,2.6,0.6c0.4,0.2,0.8,0.2,1,0.2
					c0.2-0.2,0.4-0.4,0.6-0.4s0.6,0,0.8,0c0.2,0,0.6-0.4,0.8-0.4c0.2-0.2,1.8-1.2,3.8-1.8c2-0.6,14-3.6,15.2-3.8
					c1-0.2,1.8,0.4,2,0.8s0.2,0.6,0.2,0.6S84,76.8,83.4,77.2c-0.6,0.2-1,0.4-1.8,0.2c-0.8-0.2-2-0.6-2.6-0.6c-0.4-0.2-0.8-0.2-1-0.2
					C77.8,76.8,77.6,77,77.4,77z"/>
			</g>
		</g>
		<g>
			<g>
				<g>
					<g>
						<g>
							<path fill="#B7B7B7" d="M23.2,75.8"/>
						</g>
						<g>
							<path fill="#B7B7B7" d="M23.2,75.8"/>
						</g>
					</g>
				</g>
				<path fill="#B7B7B7" d="M23.6,74.4c0.2,0,0.6,0.2,0.6,0.4c0.2,0,0.6,0,1.2-0.2S27.2,74,28,74c0.8,0,1.2,0,1.8,0.4
					c0.6,0.2,15.6,7.8,15.6,7.8s0,0.2-0.2,0.6s-1,1-2,0.8s-13-3.6-15-4.2s-3.6-1.8-3.8-1.8c-0.2-0.2-0.6-0.4-0.8-0.4
					c-0.2,0-0.6,0-0.8,0c-0.2,0-0.6-0.2-0.6-0.4c-0.2,0-0.6,0-1.2,0.2s-1.8,0.6-2.6,0.6c-0.8,0-1.2,0-1.8-0.4C16,77,1,69.4,1,69.4
					s0-0.2,0.2-0.6s1-1,2-0.8s13,3.6,15,4.2S21.8,74,22,74c0.2,0.2,0.6,0.4,0.8,0.4C23.2,74.4,23.4,74.4,23.6,74.4z"/>
			</g>
		</g>
		<g>
			<g>
				<g>
					<g>
						<g>
							<path fill="#B7B7B7" d="M23.2,22.8"/>
						</g>
						<g>
							<circle fill="#B7B7B7" cx="23.2" cy="22.8" r="1"/>
							<path fill="#B7B7B7" d="M23.2,22.8"/>
						</g>
					</g>
				</g>
				<path fill="#B7B7B7" d="M23.6,24.2c-0.2,0-0.6,0-0.8,0c-0.2,0-0.6,0.2-0.8,0.4c-0.2,0.2-1.8,1.2-4,1.6c-2,0.4-14.2,3-15.2,3.2
					S1,29,0.8,28.6C0.6,28.2,0.6,28,0.6,28s15.6-6.6,16-6.8c0.6-0.2,1-0.4,1.8-0.2c0.8,0.2,2,0.6,2.6,0.8c0.4,0.2,0.8,0.2,1,0.2
					c0.2-0.2,0.4-0.4,0.8-0.4c0.2,0,0.6,0,0.8,0c0.2,0,0.6-0.2,0.8-0.4c0.2-0.2,1.8-1.2,4-1.6c2-0.4,14.2-3,15.2-3.2s1.8,0.4,2,0.8
					c0.2,0.4,0.4,0.6,0.4,0.6s-15.6,6.6-16,6.8c-0.6,0.2-1,0.4-1.8,0.2c-0.8-0.2-2-0.6-2.6-0.8c-0.4-0.2-0.8-0.2-1-0.2
					C24.2,24,24,24.2,23.6,24.2z"/>
			</g>
		</g>
		<path fill="#B7B7B7" d="M62,56.6H52h-1.8H37.4c-6.2,0-7.4-1.4-7.4-6v-1.4V48c0-4.6,1.2-6,7.4-6h12.8H52h10c6.2,0,7.4,1.4,7.4,6
			v1.4v1.4C69.4,55.4,68.2,56.6,62,56.6z"/>
		<path opacity="0.38" fill="#B7B7B7" enable-background="new    " d="M65.6,50.8c0,2.6-1,3-5.4,3h-7h-3H38.8c-4.4,0-5.4-0.4-5.4-3
			v-1.4V48c0-2.6,1-3,5.4-3h11.4h3h7c4.4,0,5.4,0.4,5.4,3v1.4V50.8z"/>
	</g>
</g>
</svg>
